<svg xmlns="http://www.w3.org/2000/svg" viewBox="0 0 100 100" width="100" height="100">
  <!-- Gradient definition -->
  <defs>
    <linearGradient id="heartGradient" x1="0%" y1="0%" x2="100%" y2="100%">
      <stop offset="0%" stop-color="#ff3e8f" />
      <stop offset="100%" stop-color="#7928ca" />
    </linearGradient>
    <filter id="glow" x="-50%" y="-50%" width="200%" height="200%">
      <feGaussianBlur stdDeviation="2" result="blur" />
      <feComposite in="SourceGraphic" in2="blur" operator="over" />
    </filter>
  </defs>
  
  <!-- Heart shape -->
  <path d="M50 85 C25 65, 0 50, 0 25 C0 10, 10 0, 25 0 C35 0, 45 10, 50 20 C55 10, 65 0, 75 0 C90 0, 100 10, 100 25 C100 50, 75 65, 50 85 Z" fill="url(#heartGradient)" filter="url(#glow)" />
  
  <!-- AI circuit pattern -->
  <g fill="none" stroke="#ffffff" stroke-width="1" opacity="0.7">
    <path d="M25 30 L40 30 L40 45 L60 45 L60 30 L75 30" />
    <path d="M50 20 L50 70" />
    <circle cx="40" cy="30" r="3" fill="#ffffff" />
    <circle cx="60" cy="30" r="3" fill="#ffffff" />
    <circle cx="50" cy="45" r="3" fill="#ffffff" />
    <circle cx="50" cy="70" r="3" fill="#ffffff" />
  </g>
  
  <!-- Pulse animation -->
  <circle cx="50" cy="50" r="35" stroke="#ffffff" stroke-width="1" fill="none" opacity="0.3">
    <animate attributeName="r" values="35;45;35" dur="2s" repeatCount="indefinite" />
    <animate attributeName="opacity" values="0.3;0;0.3" dur="2s" repeatCount="indefinite" />
  </circle>
</svg>